<svg xmlns="http://www.w3.org/2000/svg" viewBox="0 0 291.11 55.8"><defs><style>.cls-1{fill:#ff9e00;}.cls-2{fill:#fff;}</style></defs><g id="Layer_2" data-name="Layer 2"><g id="Layer_1-2" data-name="Layer 1"><path class="cls-1" d="M91.89.31l-8.7,28H78.48L72.36,9.19a12.73,12.73,0,0,1-.47-1.71c-.08.32-.15.63-.23.91s-.16.55-.25.8L65.23,28.33H60.5L51.82.31h4.36a1.93,1.93,0,0,1,1.13.32,1.53,1.53,0,0,1,.61.86l4.77,16.76q.15.63.3,1.35c.1.49.19,1,.3,1.52.1-.54.21-1.05.34-1.53s.25-.92.39-1.34L69.53,1.49a1.83,1.83,0,0,1,.61-.81A1.67,1.67,0,0,1,71.25.31h1.53a1.77,1.77,0,0,1,1.11.33,2,2,0,0,1,.64.85L80,18.25A25,25,0,0,1,80.75,21c.17-1,.35-2,.56-2.78L86.08,1.49a1.44,1.44,0,0,1,.59-.83A1.87,1.87,0,0,1,87.8.31Z"/><path class="cls-1" d="M121.5,14.32a15.83,15.83,0,0,1-1,5.71,13.43,13.43,0,0,1-2.88,4.54,13.07,13.07,0,0,1-4.48,3,16.28,16.28,0,0,1-11.61,0,13.17,13.17,0,0,1-4.48-3A13.33,13.33,0,0,1,94.14,20a15.62,15.62,0,0,1-1-5.71,15.66,15.66,0,0,1,1-5.71A13.33,13.33,0,0,1,97,4.07a13,13,0,0,1,4.48-3A15.09,15.09,0,0,1,107.32,0a16.14,16.14,0,0,1,4,.49,14.26,14.26,0,0,1,3.45,1.4,12.78,12.78,0,0,1,2.82,2.19A13.39,13.39,0,0,1,119.72,7a14.45,14.45,0,0,1,1.33,3.45A16.56,16.56,0,0,1,121.5,14.32Zm-5.33,0a12.68,12.68,0,0,0-.62-4.14,8.92,8.92,0,0,0-1.76-3.11A7.53,7.53,0,0,0,111,5.12a10.35,10.35,0,0,0-7.38,0,7.49,7.49,0,0,0-2.79,2,9,9,0,0,0-1.78,3.11,13,13,0,0,0-.62,4.14,13,13,0,0,0,.62,4.14,8.82,8.82,0,0,0,1.78,3.1,7.6,7.6,0,0,0,2.79,2,10.5,10.5,0,0,0,7.38,0,7.65,7.65,0,0,0,2.78-2,8.78,8.78,0,0,0,1.76-3.1A12.68,12.68,0,0,0,116.17,14.32Z"/><path class="cls-1" d="M148,28.33h-4.7a2.07,2.07,0,0,1-1.94-1l-5.89-9a2.13,2.13,0,0,0-.73-.71,2.46,2.46,0,0,0-1.17-.22h-2.23v11H126.1V.31h8.54a18,18,0,0,1,4.9.59,9.3,9.3,0,0,1,3.35,1.66,6.56,6.56,0,0,1,1.93,2.55,8.38,8.38,0,0,1,.62,3.26,8.45,8.45,0,0,1-.42,2.68,7.76,7.76,0,0,1-3.14,4.08,9.65,9.65,0,0,1-2.63,1.23A4.82,4.82,0,0,1,141,18ZM134.56,13.64a7.92,7.92,0,0,0,2.57-.37,4.89,4.89,0,0,0,1.8-1A4.06,4.06,0,0,0,140,10.72a5.42,5.42,0,0,0,.35-2,4,4,0,0,0-1.41-3.28,6.7,6.7,0,0,0-4.29-1.14h-3.33v9.3Z"/><path class="cls-1" d="M156.23,12.05h1.22a3.08,3.08,0,0,0,1.22-.2,2.07,2.07,0,0,0,.83-.65l7.74-9.78a2.76,2.76,0,0,1,1-.87A3.33,3.33,0,0,1,169.6.31h4.5L164.66,12a5.28,5.28,0,0,1-1.73,1.51,3.77,3.77,0,0,1,1.16.65,5.28,5.28,0,0,1,1,1.09l9.73,13.12h-4.6a2.77,2.77,0,0,1-1.38-.26,2.1,2.1,0,0,1-.77-.77L160.13,17a2.13,2.13,0,0,0-.86-.74,3.62,3.62,0,0,0-1.39-.21h-1.65V28.33H151V.31h5.21Z"/><path class="cls-1" d="M186.69.31a16,16,0,0,1,4.87.66A9.32,9.32,0,0,1,195,2.81a7.27,7.27,0,0,1,2,2.83,9.6,9.6,0,0,1,.65,3.6A9.79,9.79,0,0,1,196.9,13a7.74,7.74,0,0,1-2,2.92,9.32,9.32,0,0,1-3.4,1.9,15.27,15.27,0,0,1-4.78.68H182.8v9.86h-5.22V.31Zm0,14.09a7.8,7.8,0,0,0,2.5-.36A4.68,4.68,0,0,0,191,13,4,4,0,0,0,192,11.38a6.24,6.24,0,0,0,.35-2.14,5.69,5.69,0,0,0-.35-2A3.88,3.88,0,0,0,191,5.66a4.61,4.61,0,0,0-1.76-1,8.22,8.22,0,0,0-2.52-.34H182.8V14.4Z"/><path class="cls-1" d="M218,24v4.3H201.58V.31h5.21V24Z"/><path class="cls-1" d="M245.72,28.33h-4a1.73,1.73,0,0,1-1.11-.34,2.14,2.14,0,0,1-.64-.84l-2.09-5.72H226.24l-2.09,5.72a1.76,1.76,0,0,1-.6.81,1.66,1.66,0,0,1-1.1.37h-4.07l11-28h5.31Zm-9.21-10.58L233.1,8.43c-.16-.41-.34-.9-.52-1.47s-.36-1.18-.54-1.84c-.17.66-.34,1.27-.53,1.85S231.16,8,231,8.47l-3.39,9.28Z"/><path class="cls-1" d="M267,21.72a1,1,0,0,1,.75.33l2.06,2.23a11.32,11.32,0,0,1-4.2,3.24,14.44,14.44,0,0,1-6,1.12,14.13,14.13,0,0,1-5.61-1.06,12.25,12.25,0,0,1-4.25-3,13,13,0,0,1-2.71-4.53,17.22,17.22,0,0,1-.93-5.76,16.05,16.05,0,0,1,1-5.78A13.35,13.35,0,0,1,250,4a12.88,12.88,0,0,1,4.37-2.95A14.39,14.39,0,0,1,260,0a13.89,13.89,0,0,1,5.44,1,13,13,0,0,1,4,2.63l-1.75,2.43a1.48,1.48,0,0,1-.39.4,1.13,1.13,0,0,1-.67.18,1.24,1.24,0,0,1-.6-.17,7.43,7.43,0,0,1-.68-.4c-.25-.17-.53-.34-.85-.54A7.45,7.45,0,0,0,263.41,5a9.17,9.17,0,0,0-1.48-.41A10.24,10.24,0,0,0,260,4.44a8.58,8.58,0,0,0-3.44.67A7.45,7.45,0,0,0,253.86,7a9.08,9.08,0,0,0-1.75,3.1,13.17,13.17,0,0,0-.62,4.18,12.44,12.44,0,0,0,.67,4.21,9.43,9.43,0,0,0,1.81,3.1,7.67,7.67,0,0,0,2.7,1.92,8.22,8.22,0,0,0,3.33.67,16.09,16.09,0,0,0,1.93-.11,8.41,8.41,0,0,0,1.59-.37,7.48,7.48,0,0,0,1.37-.65,7.58,7.58,0,0,0,1.29-1,2.13,2.13,0,0,1,.41-.28A1,1,0,0,1,267,21.72Z"/><path class="cls-1" d="M278.66,4.46v7.77h9.81v4h-9.81v7.93h12.45v4.16H273.43V.31h17.68V4.46Z"/><path class="cls-2" d="M69.46,34.64V55.57H65.55V46.42H55.72v9.15h-3.9V34.64h3.9v9h9.83v-9Z"/><path class="cls-2" d="M78,37.74v5.8h7.33v3H78v5.92h9.3v3.11H74.12V34.64h13.2v3.1Z"/><path class="cls-2" d="M108.69,55.57h-3a1.31,1.31,0,0,1-.83-.26,1.42,1.42,0,0,1-.47-.63l-1.57-4.26H94.15l-1.57,4.26a1.3,1.3,0,0,1-.45.61,1.2,1.2,0,0,1-.82.28h-3L96.5,34.64h4Zm-6.87-7.9-2.55-7a10.4,10.4,0,0,1-.39-1.1c-.14-.42-.27-.88-.41-1.37q-.18.74-.39,1.38a11.83,11.83,0,0,1-.39,1.12l-2.53,6.94Z"/><path class="cls-2" d="M127.2,55.57h-3.52a1.55,1.55,0,0,1-1.45-.78l-4.4-6.7a1.46,1.46,0,0,0-.54-.54,1.85,1.85,0,0,0-.87-.16h-1.67v8.18h-3.89V34.64h6.38a13.48,13.48,0,0,1,3.66.44,7.14,7.14,0,0,1,2.5,1.24,4.84,4.84,0,0,1,1.44,1.9,6.66,6.66,0,0,1,.15,4.44,5.72,5.72,0,0,1-.9,1.71,6,6,0,0,1-1.44,1.34,7.2,7.2,0,0,1-2,.91,3.9,3.9,0,0,1,.69.52,3.66,3.66,0,0,1,.58.7Zm-10-11a5.8,5.8,0,0,0,1.92-.28,3.53,3.53,0,0,0,1.35-.76,3.08,3.08,0,0,0,.79-1.15A4,4,0,0,0,121.5,41a3,3,0,0,0-1-2.45,5.09,5.09,0,0,0-3.21-.85h-2.49v7Z"/><path class="cls-2" d="M133.38,55.57h-3.91V34.64h3.91Z"/><path class="cls-2" d="M155.69,34.64V55.57h-2a1.81,1.81,0,0,1-.78-.15,1.9,1.9,0,0,1-.6-.52L141.4,41c0,.64.08,1.23.08,1.77V55.57h-3.43V34.64h2l.43,0a1.35,1.35,0,0,1,.32.09,1.11,1.11,0,0,1,.27.19l.29.32,11,14c0-.34-.06-.67-.08-1s0-.63,0-.91V34.64Z"/><path class="cls-2" d="M177.6,45.08v8.46a11.31,11.31,0,0,1-3.39,1.72,13.39,13.39,0,0,1-3.86.54,12.85,12.85,0,0,1-4.63-.8,10.42,10.42,0,0,1-3.55-2.21,9.74,9.74,0,0,1-2.26-3.39,11.16,11.16,0,0,1-.8-4.3,11.61,11.61,0,0,1,.77-4.32,9.47,9.47,0,0,1,5.6-5.59,12.37,12.37,0,0,1,4.51-.78,13.72,13.72,0,0,1,2.38.2,12.13,12.13,0,0,1,2.06.56,9,9,0,0,1,1.73.86,10.67,10.67,0,0,1,1.43,1.11l-1.11,1.77a1.09,1.09,0,0,1-.68.51,1.17,1.17,0,0,1-.92-.21l-.95-.55a5.85,5.85,0,0,0-1.07-.47,8.3,8.3,0,0,0-1.31-.34,10.47,10.47,0,0,0-1.69-.13,7.39,7.39,0,0,0-2.8.52,5.88,5.88,0,0,0-2.13,1.5,6.49,6.49,0,0,0-1.36,2.33,9,9,0,0,0-.48,3,9.4,9.4,0,0,0,.51,3.21,6.9,6.9,0,0,0,1.45,2.39,6.11,6.11,0,0,0,2.25,1.49,8.86,8.86,0,0,0,5,.27,11,11,0,0,0,1.78-.67V48h-2.64a.78.78,0,0,1-.58-.21.7.7,0,0,1-.21-.52V45.08Z"/><path class="cls-2" d="M202.77,50.63a.75.75,0,0,1,.56.25l1.54,1.66A8.53,8.53,0,0,1,201.74,55a10.81,10.81,0,0,1-4.47.84,10.58,10.58,0,0,1-4.19-.8,9.32,9.32,0,0,1-3.18-2.21,9.75,9.75,0,0,1-2-3.39,12.64,12.64,0,0,1-.71-4.3,11.81,11.81,0,0,1,.76-4.32,9.91,9.91,0,0,1,2.12-3.37,9.46,9.46,0,0,1,3.26-2.21,10.73,10.73,0,0,1,4.2-.79,10.39,10.39,0,0,1,4.06.75,9.64,9.64,0,0,1,3,2l-1.3,1.81a1,1,0,0,1-.3.3.79.79,0,0,1-.49.13,1,1,0,0,1-.45-.12,4.79,4.79,0,0,1-.51-.3l-.64-.4a4.69,4.69,0,0,0-.84-.4,6.4,6.4,0,0,0-1.1-.3,7.07,7.07,0,0,0-1.46-.13,6.54,6.54,0,0,0-2.57.5,5.75,5.75,0,0,0-2,1.45,6.61,6.61,0,0,0-1.3,2.32,9.63,9.63,0,0,0-.47,3.11,9.19,9.19,0,0,0,.5,3.14A7,7,0,0,0,193,50.56,5.72,5.72,0,0,0,195,52a6.26,6.26,0,0,0,2.49.5,10.48,10.48,0,0,0,1.44-.09,6.6,6.6,0,0,0,1.18-.27,5.14,5.14,0,0,0,1-.49,6.77,6.77,0,0,0,1-.73,1.21,1.21,0,0,1,.31-.21A.73.73,0,0,1,202.77,50.63Z"/><path class="cls-2" d="M219.8,52.35v3.22H207.55V34.64h3.89V52.35Z"/><path class="cls-2" d="M240.51,55.57h-3a1.26,1.26,0,0,1-.82-.26,1.52,1.52,0,0,1-.48-.63l-1.56-4.26H226l-1.56,4.26a1.37,1.37,0,0,1-.45.61,1.25,1.25,0,0,1-.83.28h-3l8.24-20.93h4Zm-6.87-7.9-2.55-7c-.12-.3-.25-.67-.39-1.1s-.27-.88-.4-1.37q-.2.74-.39,1.38c-.14.43-.27.81-.4,1.12L227,47.67Z"/><path class="cls-2" d="M246.59,55.57h-3.91V34.64h3.91Z"/><path class="cls-2" d="M274,34.64V55.57h-3.43V42.05c0-.54,0-1.12.08-1.75l-6.32,11.88a1.47,1.47,0,0,1-1.38.86h-.54a1.47,1.47,0,0,1-1.38-.86l-6.4-11.92c0,.31.06.63.08.94s0,.59,0,.85V55.57h-3.43V34.64h2.94l.45,0a1.14,1.14,0,0,1,.34.07.82.82,0,0,1,.28.19,1.66,1.66,0,0,1,.24.34l6.26,11.62a10.59,10.59,0,0,1,.46,1c.14.33.28.66.41,1,.14-.35.27-.7.42-1s.3-.66.46-1l6.18-11.59a1.36,1.36,0,0,1,.25-.34.82.82,0,0,1,.28-.19,1.21,1.21,0,0,1,.34-.07l.45,0Z"/><path class="cls-2" d="M289.76,38.45a1.28,1.28,0,0,1-.37.44.83.83,0,0,1-.48.14,1.22,1.22,0,0,1-.66-.23l-.85-.5a7.34,7.34,0,0,0-1.15-.5,4.83,4.83,0,0,0-1.55-.22,4.61,4.61,0,0,0-1.42.19,2.92,2.92,0,0,0-1,.55,2.19,2.19,0,0,0-.62.83,2.82,2.82,0,0,0-.2,1.06,1.86,1.86,0,0,0,.41,1.23,3.48,3.48,0,0,0,1.09.84,10.21,10.21,0,0,0,1.55.62l1.78.59a18.39,18.39,0,0,1,1.78.72,6.22,6.22,0,0,1,1.55,1,4.67,4.67,0,0,1,1.09,1.54,5.25,5.25,0,0,1,.42,2.21,7.31,7.31,0,0,1-.49,2.66,6,6,0,0,1-1.42,2.15,6.5,6.5,0,0,1-2.28,1.45,8.39,8.39,0,0,1-3.08.53,10.05,10.05,0,0,1-2-.2,10.76,10.76,0,0,1-1.86-.55,9.79,9.79,0,0,1-1.67-.87A8.67,8.67,0,0,1,277,53.05l1.15-1.87a1.21,1.21,0,0,1,.37-.34,1,1,0,0,1,.49-.13,1.38,1.38,0,0,1,.79.29c.27.2.61.42,1,.66a8.21,8.21,0,0,0,1.36.66,5.11,5.11,0,0,0,1.86.3,3.82,3.82,0,0,0,2.57-.79,2.83,2.83,0,0,0,.91-2.27,2,2,0,0,0-.41-1.34,3.33,3.33,0,0,0-1.09-.88,7.59,7.59,0,0,0-1.55-.6c-.58-.16-1.17-.34-1.76-.54a14.72,14.72,0,0,1-1.77-.69,5.69,5.69,0,0,1-1.55-1.06,4.67,4.67,0,0,1-1.09-1.63,6.08,6.08,0,0,1-.41-2.4,5.73,5.73,0,0,1,.45-2.23,5.8,5.8,0,0,1,1.33-1.93,6.34,6.34,0,0,1,2.14-1.34,7.8,7.8,0,0,1,2.92-.51,9.71,9.71,0,0,1,3.42.58,7.52,7.52,0,0,1,2.66,1.62Z"/><path class="cls-2" d="M47.5,52.29H45.32V2.61A2.61,2.61,0,0,0,42.7,0H6.1A2.61,2.61,0,0,0,3.49,2.61V52.29H1.31A1.31,1.31,0,0,0,0,53.6v2.18H48.81V53.6A1.31,1.31,0,0,0,47.5,52.29Zm-33.56-44A1.31,1.31,0,0,1,15.25,7h4.36a1.31,1.31,0,0,1,1.31,1.31v4.36a1.31,1.31,0,0,1-1.31,1.3H15.25a1.31,1.31,0,0,1-1.31-1.3Zm0,10.46a1.31,1.31,0,0,1,1.31-1.31h4.36a1.31,1.31,0,0,1,1.31,1.31V23.1a1.31,1.31,0,0,1-1.31,1.3H15.25a1.31,1.31,0,0,1-1.31-1.3Zm5.67,16.12H15.25a1.31,1.31,0,0,1-1.31-1.31V29.2a1.31,1.31,0,0,1,1.31-1.31h4.36a1.31,1.31,0,0,1,1.31,1.31v4.35A1.31,1.31,0,0,1,19.61,34.86Zm8.28,17.43h-7V43.14a1.31,1.31,0,0,1,1.3-1.31h4.36a1.31,1.31,0,0,1,1.31,1.31Zm7-18.74a1.3,1.3,0,0,1-1.31,1.31H29.2a1.3,1.3,0,0,1-1.31-1.31V29.2a1.3,1.3,0,0,1,1.31-1.31h4.35a1.3,1.3,0,0,1,1.31,1.31Zm0-10.45a1.3,1.3,0,0,1-1.31,1.3H29.2a1.3,1.3,0,0,1-1.31-1.3V18.74a1.31,1.31,0,0,1,1.31-1.31h4.35a1.31,1.31,0,0,1,1.31,1.31Zm0-10.46a1.3,1.3,0,0,1-1.31,1.3H29.2a1.3,1.3,0,0,1-1.31-1.3V8.28A1.31,1.31,0,0,1,29.2,7h4.35a1.31,1.31,0,0,1,1.31,1.31Z"/></g></g></svg>