<svg xmlns="http://www.w3.org/2000/svg" viewBox="0 0 213.79 87.48"><defs><style>.cls-1{fill:#fff;}.cls-2{fill:#023047;}.cls-3{fill:#606c38;}</style></defs><g id="Layer_2" data-name="Layer 2"><g id="Layer_1-2" data-name="Layer 1"><path class="cls-1" d="M40.93,87.48H.72A.72.72,0,0,1,0,86.76a8.39,8.39,0,0,1,8.29-8.38l12.37-2.85a.92.92,0,0,1,.33,0l12.36,2.85a8.39,8.39,0,0,1,8.3,8.38A.72.72,0,0,1,40.93,87.48ZM1.47,86H40.18a7,7,0,0,0-6.91-6.22l-.16,0L20.82,77,8.54,79.8l-.16,0A7,7,0,0,0,1.47,86Z"/><path class="cls-1" d="M20.82,77.91c-4.62,0-8.37-4.41-8.37-9.82s3.75-9.81,8.37-9.81,8.38,4.4,8.38,9.81S25.44,77.91,20.82,77.91Zm0-18.2c-3.82,0-6.94,3.76-6.94,8.38s3.12,8.38,6.94,8.38,7-3.76,7-8.38S24.65,59.71,20.82,59.71Z"/><path class="cls-1" d="M20.82,87.48a.71.71,0,0,1-.71-.72V78.15a.72.72,0,1,1,1.43,0v8.61A.72.72,0,0,1,20.82,87.48Z"/><path class="cls-1" d="M30.4,66.42H11.25a.72.72,0,0,1-.72-.72V49.42A7.43,7.43,0,0,1,18,42H23.7a7.43,7.43,0,0,1,7.42,7.42V65.7A.72.72,0,0,1,30.4,66.42ZM12,65H29.68V49.42a6,6,0,0,0-6-6H18a6,6,0,0,0-6,6Z"/><path class="cls-1" d="M20.82,74.08c-.27,0-.55,0-.82,0a.72.72,0,1,1,.09-1.43,10.81,10.81,0,0,0,1.8,0A.72.72,0,0,1,22,74,12.1,12.1,0,0,1,20.82,74.08Zm-3.59-.56a.57.57,0,0,1-.22,0c-3.74-1.21-6.28-4.11-6.47-7.38a.72.72,0,0,1,.68-.76A.71.71,0,0,1,12,66c.15,2.68,2.3,5.08,5.47,6.11a.72.72,0,0,1-.22,1.4Zm7.53-.12A.72.72,0,0,1,24.51,72c3.14-1.13,5.17-3.61,5.17-6.31a.72.72,0,0,1,1.44,0c0,3.31-2.4,6.32-6.12,7.66A.67.67,0,0,1,24.76,73.4Z"/><polygon class="cls-2" points="20.82 81.02 14.12 80.06 15.08 76.23 20.82 77.19 20.82 81.02"/><path class="cls-1" d="M20.82,81.74h-.1l-6.7-1a.7.7,0,0,1-.49-.31.69.69,0,0,1-.1-.57l1-3.83a.72.72,0,0,1,.82-.54l5.74,1a.72.72,0,0,1,.6.71V81a.71.71,0,0,1-.25.54A.72.72,0,0,1,20.82,81.74ZM15,79.46l5.1.73V77.8l-4.49-.75Z"/><polygon class="cls-2" points="20.82 81.02 27.53 80.06 26.57 76.23 20.82 77.19 20.82 81.02"/><path class="cls-1" d="M20.82,81.74a.77.77,0,0,1-.47-.18.73.73,0,0,1-.24-.54V77.19a.72.72,0,0,1,.6-.71l5.74-1a.73.73,0,0,1,.82.54l.95,3.83a.69.69,0,0,1-.1.57.7.7,0,0,1-.49.31l-6.7,1Zm.72-3.94v2.39l5.1-.73L26,77.05Z"/><path class="cls-1" d="M24.65,87.48a.71.71,0,0,1-.71-.72V84.85a.72.72,0,1,1,1.43,0v1.91A.72.72,0,0,1,24.65,87.48Z"/><path class="cls-2" d="M11.25,57.08l-2.5-8.34a1,1,0,0,1,.91-1.23h3.18a1,1,0,0,1,.91,1.23Z"/><path class="cls-1" d="M11.25,57.8a.72.72,0,0,1-.69-.51L8.06,49a1.68,1.68,0,0,1,.26-1.49,1.65,1.65,0,0,1,1.34-.67h3.18a1.65,1.65,0,0,1,1.34.67A1.68,1.68,0,0,1,14.44,49l-2.5,8.34A.72.72,0,0,1,11.25,57.8ZM9.66,48.23a.26.26,0,0,0-.19.09.22.22,0,0,0,0,.21l1.82,6,1.82-6a.22.22,0,0,0,0-.21.26.26,0,0,0-.19-.09Z"/><polygon class="cls-2" points="10.29 81.97 1.68 81.97 3.59 78.15 10.29 78.15 10.29 81.97"/><path class="cls-1" d="M10.29,82.69H1.68a.75.75,0,0,1-.62-.34.71.71,0,0,1,0-.69L3,77.83a.71.71,0,0,1,.64-.4h6.7a.72.72,0,0,1,.72.72V82A.71.71,0,0,1,10.29,82.69ZM2.84,81.26H9.57v-2.4H4Z"/><polygon class="cls-2" points="31.36 81.97 39.97 81.97 38.06 78.15 31.36 78.15 31.36 81.97"/><path class="cls-1" d="M40,82.69H31.36a.71.71,0,0,1-.72-.71V78.15a.72.72,0,0,1,.72-.72h6.7a.71.71,0,0,1,.64.4l1.92,3.83a.71.71,0,0,1,0,.69A.72.72,0,0,1,40,82.69Zm-7.9-1.43h6.74l-1.2-2.4H32.07Z"/><path class="cls-1" d="M37.94,0V34.54H32.28V12.23c0-.89,0-1.85.14-2.89L22,29a2.41,2.41,0,0,1-2.27,1.41h-.9A2.41,2.41,0,0,1,16.54,29L6,9.27c0,.52.09,1,.12,1.55s.05,1,.05,1.41V34.54H.49V0H5.33l.74,0a2.39,2.39,0,0,1,.57.12,1.45,1.45,0,0,1,.45.31A2.78,2.78,0,0,1,7.48,1L17.83,20.21c.27.51.52,1,.75,1.57s.46,1.1.68,1.68q.33-.88.69-1.71c.24-.55.5-1.08.77-1.59L30.92,1a2.45,2.45,0,0,1,.4-.58,1.53,1.53,0,0,1,.47-.31A2.31,2.31,0,0,1,32.35,0l.74,0Z"/><path class="cls-1" d="M52.08,34.54H45.63V0h6.45Z"/><path class="cls-1" d="M80,29.24v5.3H59.79V0h6.43V29.24Z"/><path class="cls-1" d="M91.06,34.54H84.61V0h6.45Z"/><path class="cls-1" d="M122.9,5.28H112.49V34.54h-6.43V5.28H95.65V0H122.9Z"/><path class="cls-1" d="M153.67,34.54h-5a2.1,2.1,0,0,1-1.36-.42,2.54,2.54,0,0,1-.79-1L144,26H129.66l-2.58,7a2.32,2.32,0,0,1-.74,1,2.08,2.08,0,0,1-1.36.45h-5L133.55,0h6.55Zm-11.35-13L138.12,10c-.21-.51-.43-1.12-.65-1.82s-.44-1.45-.67-2.27c-.2.82-.42,1.58-.64,2.29s-.44,1.32-.65,1.85L131.33,21.5Z"/><path class="cls-1" d="M184.22,34.54h-5.81A2.55,2.55,0,0,1,176,33.25l-7.26-11.06a2.56,2.56,0,0,0-.89-.88,3.09,3.09,0,0,0-1.45-.27h-2.75v13.5h-6.42V0h10.53a21.73,21.73,0,0,1,6,.73,11.62,11.62,0,0,1,4.14,2,8,8,0,0,1,2.37,3.14,10.34,10.34,0,0,1,.77,4,10.17,10.17,0,0,1-.52,3.29,9.27,9.27,0,0,1-1.48,2.82,9.6,9.6,0,0,1-2.39,2.22,11.86,11.86,0,0,1-3.23,1.51,6.26,6.26,0,0,1,1.14.85,6.1,6.1,0,0,1,1,1.15ZM167.69,16.43a10,10,0,0,0,3.16-.45,6.11,6.11,0,0,0,2.22-1.25,5.19,5.19,0,0,0,1.31-1.9,6.76,6.76,0,0,0,.43-2.42,4.88,4.88,0,0,0-1.74-4Q171.34,5,167.78,5h-4.11V16.43Z"/><path class="cls-1" d="M201.2,21.16V34.54h-6.4V21.16L182.21,0h5.66a2,2,0,0,1,1.33.41,3.48,3.48,0,0,1,.82,1L196.33,13c.36.69.69,1.33,1,1.93s.53,1.22.76,1.82c.2-.6.44-1.21.71-1.82s.58-1.24.93-1.93L206,1.43a3.08,3.08,0,0,1,.79-1A2,2,0,0,1,208.1,0h5.69Z"/><path class="cls-3" d="M71,78.65a1.21,1.21,0,0,1,.89.39l2.41,2.61a13,13,0,0,1-4.92,3.8,17,17,0,0,1-7,1.32,16.48,16.48,0,0,1-6.59-1.25,14.42,14.42,0,0,1-5-3.48,15.19,15.19,0,0,1-3.17-5.32A19.93,19.93,0,0,1,46.5,70a18.82,18.82,0,0,1,1.19-6.8A15.75,15.75,0,0,1,51,57.85a15,15,0,0,1,5.13-3.47,17,17,0,0,1,6.6-1.24,16.22,16.22,0,0,1,6.39,1.18,15.16,15.16,0,0,1,4.74,3.1l-2,2.84a1.9,1.9,0,0,1-.46.48,1.32,1.32,0,0,1-.79.2,1.45,1.45,0,0,1-.7-.19c-.25-.13-.51-.29-.8-.48s-.62-.39-1-.62A8.12,8.12,0,0,0,66.76,59,10.8,10.8,0,0,0,65,58.54a12.91,12.91,0,0,0-2.29-.19,10,10,0,0,0-4,.79,8.77,8.77,0,0,0-3.15,2.27,10.65,10.65,0,0,0-2,3.64A15.18,15.18,0,0,0,52.76,70a14.3,14.3,0,0,0,.79,4.94,10.92,10.92,0,0,0,2.12,3.64,9.12,9.12,0,0,0,3.17,2.26,9.83,9.83,0,0,0,3.91.79A17.27,17.27,0,0,0,65,81.45,10.14,10.14,0,0,0,66.88,81a8,8,0,0,0,1.62-.77A10.15,10.15,0,0,0,70,79.11a1.87,1.87,0,0,1,.48-.33A1.08,1.08,0,0,1,71,78.65Z"/><path class="cls-3" d="M97.8,81.36v5H78.52V53.5h6.12V81.36Z"/><path class="cls-3" d="M130.36,86.41h-4.73a2,2,0,0,1-1.3-.4,2.46,2.46,0,0,1-.75-1l-2.45-6.71H107.49L105,85a2.27,2.27,0,0,1-.71,1,2,2,0,0,1-1.3.43H98.25l13-32.91h6.24ZM119.55,74l-4-10.94c-.2-.49-.4-1.06-.61-1.73s-.43-1.39-.64-2.16c-.2.77-.4,1.5-.62,2.17s-.41,1.26-.61,1.76l-4,10.9Z"/><path class="cls-3" d="M139.92,86.41h-6.14V53.5h6.14Z"/><path class="cls-3" d="M183,53.5V86.41h-5.4V65.15c0-.84.05-1.76.14-2.75l-9.94,18.69a2.33,2.33,0,0,1-2.17,1.34h-.86a2.3,2.3,0,0,1-2.16-1.34L152.51,62.33c0,.5.08,1,.11,1.48s0,.94,0,1.34V86.41h-5.4V53.5h4.62c.28,0,.51,0,.71,0a1.72,1.72,0,0,1,.53.11,1.15,1.15,0,0,1,.44.3,2.52,2.52,0,0,1,.37.54l9.86,18.28c.25.48.49,1,.71,1.5s.44,1,.65,1.59c.21-.56.43-1.1.66-1.63s.47-1,.73-1.51l9.72-18.23a2.21,2.21,0,0,1,.38-.54,1.27,1.27,0,0,1,.45-.3,1.72,1.72,0,0,1,.53-.11c.2,0,.43,0,.71,0Z"/><path class="cls-3" d="M207.81,59.49a2.07,2.07,0,0,1-.58.69,1.26,1.26,0,0,1-.76.22,2,2,0,0,1-1-.35c-.37-.24-.82-.5-1.33-.79a10.58,10.58,0,0,0-1.81-.78,8.35,8.35,0,0,0-4.68,0,4.69,4.69,0,0,0-1.6.85,3.45,3.45,0,0,0-1,1.31,4.36,4.36,0,0,0-.32,1.67,2.93,2.93,0,0,0,.65,1.94,5.61,5.61,0,0,0,1.72,1.32,16.37,16.37,0,0,0,2.43,1c.91.29,1.85.59,2.8.92a25.26,25.26,0,0,1,2.8,1.14,9.76,9.76,0,0,1,2.44,1.64,7.53,7.53,0,0,1,1.72,2.42,8.48,8.48,0,0,1,.64,3.48,11.33,11.33,0,0,1-.76,4.18,9.67,9.67,0,0,1-2.23,3.39,10.49,10.49,0,0,1-3.58,2.27,13.08,13.08,0,0,1-4.85.83,15.87,15.87,0,0,1-3.09-.3,16.57,16.57,0,0,1-2.93-.88,15.94,15.94,0,0,1-2.63-1.36,12.89,12.89,0,0,1-2.18-1.78l1.8-2.93a1.71,1.71,0,0,1,.59-.54,1.52,1.52,0,0,1,.77-.22,2.19,2.19,0,0,1,1.23.47c.44.31,1,.66,1.57,1a12.43,12.43,0,0,0,2.13,1,8.16,8.16,0,0,0,2.92.47,6,6,0,0,0,4-1.24A4.46,4.46,0,0,0,204.17,77a3.33,3.33,0,0,0-.65-2.12,5.19,5.19,0,0,0-1.72-1.38,12.8,12.8,0,0,0-2.44-.94c-.91-.26-1.83-.54-2.77-.84a24.32,24.32,0,0,1-2.78-1.1,8.66,8.66,0,0,1-2.43-1.66,7.35,7.35,0,0,1-1.72-2.56,9.76,9.76,0,0,1-.65-3.79,8.92,8.92,0,0,1,.72-3.5,9.07,9.07,0,0,1,2.08-3,10.13,10.13,0,0,1,3.37-2.11,12.17,12.17,0,0,1,4.59-.8,15.3,15.3,0,0,1,5.38.91,12.23,12.23,0,0,1,4.18,2.55Z"/></g></g></svg>